<svg width="17" height="17" viewBox="0 0 17 17" fill="none" xmlns="http://www.w3.org/2000/svg">
    <path d="M2.12484 2.83333C2.12484 3.22453 2.44197 3.54167 2.83317 3.54167C3.22437 3.54167 3.5415 3.22453 3.5415 2.83333C3.5415 2.44213 3.22437 2.125 2.83317 2.125C2.44197 2.125 2.12484 2.44213 2.12484 2.83333Z" stroke="#4B5563" stroke-width="2"/>
    <path d="M7.79183 2.83333C7.79183 3.22453 8.10896 3.54167 8.50016 3.54167C8.89136 3.54167 9.2085 3.22453 9.2085 2.83333C9.2085 2.44213 8.89136 2.125 8.50016 2.125C8.10896 2.125 7.79183 2.44213 7.79183 2.83333Z" stroke="#4B5563" stroke-width="2"/>
    <path d="M13.4583 2.83333C13.4583 3.22453 13.7755 3.54167 14.1667 3.54167C14.5579 3.54167 14.875 3.22453 14.875 2.83333C14.875 2.44213 14.5579 2.125 14.1667 2.125C13.7755 2.125 13.4583 2.44213 13.4583 2.83333Z" stroke="#4B5563" stroke-width="2"/>
    <path d="M2.12484 8.49996C2.12484 8.89116 2.44197 9.20829 2.83317 9.20829C3.22437 9.20829 3.5415 8.89116 3.5415 8.49996C3.5415 8.10876 3.22437 7.79163 2.83317 7.79163C2.44197 7.79163 2.12484 8.10876 2.12484 8.49996Z" stroke="#4B5563" stroke-width="2"/>
    <path d="M7.79183 8.49996C7.79183 8.89116 8.10896 9.20829 8.50016 9.20829C8.89136 9.20829 9.2085 8.89116 9.2085 8.49996C9.2085 8.10876 8.89136 7.79163 8.50016 7.79163C8.10896 7.79163 7.79183 8.10876 7.79183 8.49996Z" stroke="#4B5563" stroke-width="2"/>
    <path d="M13.4583 8.49996C13.4583 8.89116 13.7755 9.20829 14.1667 9.20829C14.5579 9.20829 14.875 8.89116 14.875 8.49996C14.875 8.10876 14.5579 7.79163 14.1667 7.79163C13.7755 7.79163 13.4583 8.10876 13.4583 8.49996Z" stroke="#4B5563" stroke-width="2"/>
    <path d="M2.12484 14.1667C2.12484 14.5579 2.44197 14.875 2.83317 14.875C3.22437 14.875 3.5415 14.5579 3.5415 14.1667C3.5415 13.7755 3.22437 13.4584 2.83317 13.4584C2.44197 13.4584 2.12484 13.7755 2.12484 14.1667Z" stroke="#4B5563" stroke-width="2"/>
    <path d="M7.79183 14.1667C7.79183 14.5579 8.10896 14.875 8.50016 14.875C8.89136 14.875 9.2085 14.5579 9.2085 14.1667C9.2085 13.7755 8.89136 13.4584 8.50016 13.4584C8.10896 13.4584 7.79183 13.7755 7.79183 14.1667Z" stroke="#4B5563" stroke-width="2"/>
    <path d="M13.4583 14.1667C13.4583 14.5579 13.7755 14.875 14.1667 14.875C14.5579 14.875 14.875 14.5579 14.875 14.1667C14.875 13.7755 14.5579 13.4584 14.1667 13.4584C13.7755 13.4584 13.4583 13.7755 13.4583 14.1667Z" stroke="#4B5563" stroke-width="2"/>
</svg>
