<svg xmlns="http://www.w3.org/2000/svg" viewBox="0 0 2340 1560"><defs><style>.cls-1{isolation:isolate;}.cls-2{fill:#492c1e;}.cls-3{fill:#ffd6d2;}.cls-4{fill:#f49d98;}.cls-5{fill:#f4b65b;}.cls-6{fill:#cc862b;}.cls-7{fill:#5a3c2a;}.cls-8{fill:#2b160e;}.cls-14,.cls-9{fill:#fff;}.cls-10{fill:#b7cfe2;}.cls-11{fill:#6e99d6;}.cls-12{fill:#d7e8f7;}.cls-13{fill:#e8f1f9;}.cls-14{font-size:96px;}.cls-15{fill:#65baaa;}.cls-16{fill:#3e9e8b;}.cls-17{fill:#1b6d5d;}.cls-18{fill:#d67636;}.cls-19{fill:#dd726f;}.cls-20{fill:#ce4d69;}.cls-21{opacity:0.2;}.cls-21,.cls-23{mix-blend-mode:overlay;}.cls-22{fill:#96173e;}.cls-23{opacity:0.5;}.cls-24{fill:#95b5e8;}</style></defs><title>pros &amp;amp; cons</title><g class="cls-1"><g id="Layer_2" data-name="Layer 2"><path class="cls-2" d="M866.11,409.08s7.83-64.48-29.16-73.24-76.85,8.41-89.56,36.62-14,38.87-14,38.87S718,421.58,715.79,431.05s3.57,19.13,8.38,26.57-16.64,21-15.33,36.36,10.95,27.6,11.39,38.12,4,41.62,42.74,40.74c0,0,12.21,26.72,33.58,28s49-6.57,55.33-26.73c0,0,35.26-15.33,41.4-43.8,4-18.38-2.67-38.38-7.87-50.25a21.42,21.42,0,0,1,1.26-19.49c3.17-5.42,6.17-12.77,5.44-20.51C890.65,424.62,875.17,411.36,866.11,409.08Z"/><path class="cls-3" d="M865,494.42l50.52,76.81L971.7,478l24.38,13.17L956.19,606.85a37,37,0,0,1-38.4,24.82h0a37.05,37.05,0,0,1-25.61-13.82L843.41,556.6S833.11,507.57,865,494.42Z"/><polygon class="cls-4" points="915.47 571.23 911.06 586.86 911.06 564.53 915.47 571.23"/><path class="cls-4" d="M853.85,520.27s27.32,42.05,39.29,98.78L843.41,556.6Z"/><path class="cls-3" d="M968.08,484.2l25,15,3.49-9.06c7.62-6.22,18.26-26.18,18.26-26.18l7-20.13a2.81,2.81,0,0,0-1.13-3.29l-.81-.54a2.83,2.83,0,0,0-3.45.28l-1.22,1.12,1.8-4.82a2.82,2.82,0,0,0-.74-3.08l-1.54-1.4a2.81,2.81,0,0,0-3.25-.39l-2.25,1.21.89-2.37a3.19,3.19,0,0,0-1.52-3.95l-2.69-1.39a3.19,3.19,0,0,0-3.29.22l-1.52,1.07h0a3.08,3.08,0,0,0-2.41-3.16l-3.52-.8a3.05,3.05,0,0,0-2.77.74L978.59,436a11.76,11.76,0,0,0-3.8,8.27l-1,30.19Z"/><path class="cls-4" d="M992.73,445.64a1.58,1.58,0,0,0,.36.26,2.51,2.51,0,0,0,.49.25,3.25,3.25,0,0,0,3.46-.6l6.67-6.14-1.92,6.58-.48,1.63,0,.17a3.23,3.23,0,0,0,1.36,3.45,2.28,2.28,0,0,0,.39.24l1.49.72a3.26,3.26,0,0,0,3.73-.62l.23-.23s0,0,0,0l2.51-2.5-.24,2.84a3.26,3.26,0,0,0,2.33,3.4l.14,0a3.24,3.24,0,0,0,2.78-.45,3.49,3.49,0,0,0,1-1.09l5.26-9.49a.44.44,0,0,0-.18-.61.46.46,0,0,0-.62.17l-5.26,9.49a2.35,2.35,0,0,1-2.73,1.11l-.13,0a2.35,2.35,0,0,1-1.68-2.46l.35-4.08a.46.46,0,0,0-.78-.37l-1.15,1.15-2.34,2.35-.14.14a2.38,2.38,0,0,1-2.7.46l-1.48-.73a.16.16,0,0,1-.08-.06,2.22,2.22,0,0,1-1.09-1.23,2.3,2.3,0,0,1-.06-1.49l.26-.88.61-2.07,2-6.84a.42.42,0,0,0-.19-.51.44.44,0,0,0-.55.05l-7.87,7.25a2.4,2.4,0,0,1-2.65.37l-.21-.11a2.67,2.67,0,0,1-.56-.5,2.38,2.38,0,0,1-.18-2.73l1.89-3.06,1.8-3,2.48-4a.46.46,0,0,0-.77-.49l-2.51,4.09L994,438.3l-1.92,3.14A3.28,3.28,0,0,0,992.73,445.64Z"/><path class="cls-4" d="M984.58,443.67a3.27,3.27,0,0,0,3.95-.36l5.44-5,1.75-2.84-7.81,7.18a2.35,2.35,0,0,1-3.6-3l6.18-10.07a.46.46,0,0,0-.15-.63.48.48,0,0,0-.63.16l-6.18,10.06A3.3,3.3,0,0,0,984.58,443.67Z"/><path class="cls-3" d="M978.73,456.23a9.51,9.51,0,0,1,3.06-6.36l7.87-7.22,3.39-3.13a3.67,3.67,0,0,1,5.88,1.32h0a3.63,3.63,0,0,1-.35,3.41l-5.37,8.07-4.36,5s10.11,8.83,5.14,19.1l-16.28-5.14Z"/><path class="cls-4" d="M995.61,471.71a.46.46,0,0,0,.19-.35c.42-7.14-4.9-12.71-6.32-14.06l4.07-4.68,5.41-8.11a4.12,4.12,0,0,0-6.22-5.32l-11.26,10.34a9.91,9.91,0,0,0-3.2,6.67.44.44,0,0,0,.42.48.46.46,0,0,0,.49-.42,9,9,0,0,1,2.91-6.06l11.26-10.34A3.21,3.21,0,0,1,998.2,444l-5.37,8.07-4.32,5a.46.46,0,0,0,0,.65c.07.05,6.78,6,6.34,13.63a.45.45,0,0,0,.43.48A.44.44,0,0,0,995.61,471.71Z"/><path class="cls-5" d="M773.69,1369.24v0A13.46,13.46,0,0,1,760.52,1380h-27.2a19.06,19.06,0,0,1-18.51-23.67l12.56-50.63h42l4.61,59.83A12.66,12.66,0,0,1,773.69,1369.24Z"/><path class="cls-6" d="M773.69,1369.26A13.46,13.46,0,0,1,760.52,1380h-27.2a19.05,19.05,0,0,1-16.22-9l13.37,2.46a2.67,2.67,0,0,0,1.92-.4l8.54-5.65a17.9,17.9,0,0,1,23.45,3.22,2.61,2.61,0,0,0,2,.89,2.76,2.76,0,0,0,.79-.12Z"/><path class="cls-3" d="M768,1295l1.37,10.71s0,18-.33,31.32a96,96,0,0,1-3.49,23.58,18.22,18.22,0,0,0-5.48-5.51,24.64,24.64,0,0,0-8.83-3.71c-11.75-.84-16.76,2.43-19.38,5.35-2.4,2.7-2.78,5.07-4.44,3.87-3.52-2.54-4.31-11.21-4-20.94.54-15.62,4-34,4-34l1.09-6.79.87-5.37-.93-15.43,40.92-4.41-1.39,21.07Z"/><path class="cls-4" d="M726.73,1353.92c.79,1,2.63,2,5.08,2.81-2.39,2.69-2.78,5.06-4.44,3.85-3.5-2.53-4.31-11.19-4-20.91C724.34,1346.39,725.53,1352.32,726.73,1353.92Z"/><path class="cls-4" d="M769.32,1305.7s0,18-.32,31.3a96.12,96.12,0,0,1-3.5,23.58,18.3,18.3,0,0,0-5.47-5.51C767.09,1346,769.32,1305.7,769.32,1305.7Z"/><path class="cls-4" d="M769.33,1273.69l-1.39,21.07,0,.22c-14.14-.36-29.44,2-39.49,3.92l.87-5.37-.93-15.43Z"/><polygon class="cls-3" points="941.08 1372.39 893.95 1372.39 891.66 1370.07 852.16 1330.22 852.3 1329.02 854.92 1310.08 857.35 1305.42 856.99 1299.09 855.63 1273.69 899.84 1278.81 898.56 1294.27 896.95 1313.87 925.57 1351.81 941.08 1372.39"/><path class="cls-5" d="M952.81,1374.87A7,7,0,0,1,946,1380H892.73a30.43,30.43,0,0,1-21.78-9.19l-18.8-19.31-8.74,28.5h-6.06v-.09l2.76-46a26.76,26.76,0,0,1,5.11-14.2,25.92,25.92,0,0,1,3.56-4l6.14-5.62S853,1323.73,886,1351.5s39.6.32,39.6.32c9.95,3.1,18.78,9.79,25.25,15.87A7,7,0,0,1,952.81,1374.87Z"/><path class="cls-6" d="M952.81,1374.87A7,7,0,0,1,946,1380H892.73a30.43,30.43,0,0,1-21.78-9.19l-18.8-19.31-8.74,28.5h-5.92l-.14-.09,2.76-46a26.76,26.76,0,0,1,5.11-14.2c7.1,21.88,33.14,41.51,46.31,50.3a29,29,0,0,0,16.13,4.88Z"/><path class="cls-4" d="M899.84,1278.81l-1.28,15.46c-19.71-.79-33.2,2-41.57,4.82l-1.36-25.4Z"/><path class="cls-7" d="M854.12,737l20.17,97.3q.83,3.33,1.38,6.71l31.7,135.79a252.27,252.27,0,0,1,6.5,50l7.26,250.75a8.17,8.17,0,0,1-6.26,8.19c-11.12,2.65-36.23,6.5-72.1-.5a8.21,8.21,0,0,1-6.65-7.78l-8.56-265.18L764.48,875.56,783,746Z"/><polygon class="cls-2" points="764.48 875.56 811.76 842.37 827.56 1012.24 764.48 875.56"/><path class="cls-7" d="M729.86,739.19,712.63,777a124.74,124.74,0,0,0-6.82,18.69c-7.51,27.4-10,54.83-6.86,82.43l18.63,158.48-9.92,241.64a8.15,8.15,0,0,0,6.5,8.34c12.56,2.56,41.1,6.68,73.07-.06a8.22,8.22,0,0,0,6.53-8V1044.66l18-202.29L809.16,737Z"/><path class="cls-8" d="M796,1010.68h-.13a1.36,1.36,0,0,1-1.23-1.48l15.74-167a1.38,1.38,0,0,1,.84-1.14l10.26-4.19a1.36,1.36,0,1,1,1,2.52L813,843.31l-15.66,166.14A1.37,1.37,0,0,1,796,1010.68Z"/><path class="cls-8" d="M724.88,792.14a27.76,27.76,0,0,1-5.34-.53,1.36,1.36,0,1,1,.51-2.67c6.31,1.2,11.83.1,16.42-3.28,11.26-8.34,13.49-27.74,13.51-27.93a1.38,1.38,0,0,1,1.5-1.21,1.36,1.36,0,0,1,1.21,1.5c-.09.85-2.39,20.79-14.6,29.83A21.76,21.76,0,0,1,724.88,792.14Z"/><path class="cls-8" d="M860.86,792.14a.9.9,0,0,1-.23,0c-11.67-2-15.29-28.57-15.44-29.71a1.37,1.37,0,0,1,2.71-.35c.94,7.15,5.14,26,13.19,27.38a1.36,1.36,0,0,1-.23,2.7Z"/><path class="cls-5" d="M782.44,474.27s-54.6,19.69-67.6,40.51,30.65,187.29,30.65,187.29l-15.63,37.12s73.57,31.83,127.29,12.4l-5.82-35a92.46,92.46,0,0,1,.31-27.19l12-74.92,6.12-11.27a43.75,43.75,0,0,0,0-41.74l-11-20.34L865,494.42S835.89,476.9,782.44,474.27Z"/><path class="cls-6" d="M777.33,620.42a1.36,1.36,0,0,1-.63-2.57c27.43-14.31,68.68-5.8,70.42-5.43a1.36,1.36,0,0,1-.56,2.67c-.42-.09-42-8.67-68.6,5.17A1.31,1.31,0,0,1,777.33,620.42Z"/><path class="cls-6" d="M863.67,615.82a1.31,1.31,0,0,1-.76-.23,1.36,1.36,0,0,1-.38-1.89c.08-.12,8.46-12.88,11.09-28.19,2.6-15.08-15.76-43.37-16-43.66a1.36,1.36,0,0,1,2.28-1.49c.78,1.2,19.13,29.48,16.36,45.62a84.68,84.68,0,0,1-11.51,29.23A1.35,1.35,0,0,1,863.67,615.82Z"/><path class="cls-6" d="M715.36,561.9s39,7.44,31.6,45.55-1.47,94.62-1.47,94.62Q728,636.66,715.36,561.9Z"/><path class="cls-3" d="M779.66,435.21l-6.52,43.86h0c1.87,14.19,23,24.72,36.24,24.72h0c16.43,0,16.43-22.78,16.43-22.78V453.39Z"/><polygon class="cls-4" points="797.58 465.79 825.81 481.01 825.81 453.39 797.58 465.79"/><path class="cls-3" d="M851.87,372.68s-.69,35.66-5.35,64.82A36.71,36.71,0,0,1,827.88,464a35.48,35.48,0,0,1-30.45,1.83c-8.42-3.41-16.27-9.13-21.23-18.62a44.41,44.41,0,0,1-4.28-12s-11.64,2.18-13.12-16.35,14.56-16,17.48-11.29l.33,2.32a3.39,3.39,0,0,0,5.23,2.34h0a7.7,7.7,0,0,0,2.51-5.75l.32-14.85c0,.13.47,1.36,7.25,4.6,7.06,3.36,22.19-14.91,23.06-15.94-.1.49-.4,3.49,7.61,6.95C831.37,391,851.87,372.68,851.87,372.68Z"/><path class="cls-4" d="M814.79,434.4a1.12,1.12,0,0,1-1.1-.89,1.14,1.14,0,0,1,.87-1.35L825,430l-1.78-23.24a1.12,1.12,0,0,1,1-1.21,1.14,1.14,0,0,1,1.21,1l1.86,24.22a1.11,1.11,0,0,1-.89,1.19L815,434.38Z"/><rect class="cls-2" x="805.3" y="407.42" width="5.14" height="7.82" rx="2.57"/><rect class="cls-2" x="834.38" y="409.08" width="5.14" height="7.82" rx="2.57"/><path class="cls-2" d="M815.85,404a1.08,1.08,0,0,1-.62-.35c-7.62-8.38-16.63-5-17-4.82a1.13,1.13,0,1,1-.84-2.1,18.19,18.19,0,0,1,19.52,5.4,1.13,1.13,0,0,1-.08,1.6A1.09,1.09,0,0,1,815.85,404Z"/><path class="cls-2" d="M848.05,402.79a1.1,1.1,0,0,1-.71-.08c-10.34-4.66-17.23,2.07-17.52,2.36a1.13,1.13,0,0,1-1.61-1.59,18.21,18.21,0,0,1,20.06-2.83,1.13,1.13,0,0,1,.56,1.5A1.16,1.16,0,0,1,848.05,402.79Z"/><path class="cls-9" d="M815.87,440.24a3.55,3.55,0,0,1,2.08,5.68,10.83,10.83,0,0,1-18.6-3.76,3.58,3.58,0,0,1,4.17-4.55Z"/><path class="cls-4" d="M773.74,425.82h0a1,1,0,0,1-1-.94c-.08-.9-.59-3.67-1.86-4.53a1.6,1.6,0,0,0-1.48-.16,1,1,0,1,1-.59-2,3.69,3.69,0,0,1,3.24.42,4.57,4.57,0,0,1,1.08,1.07c0-2.73-.55-5.51-2.31-6.07-3.7-1.17-5.77,2.85-5.85,3a1,1,0,1,1-1.85-.93c1-2,4-5.43,8.33-4.07,5.27,1.68,3.56,12.13,3.35,13.32A1,1,0,0,1,773.74,425.82Z"/><path class="cls-10" d="M971.29,438.1h0a15,15,0,0,1,15,15v11a15,15,0,0,1-15,15h0a0,0,0,0,1,0,0V438.1A0,0,0,0,1,971.29,438.1Z"/><path class="cls-10" d="M866.18,472.69H887.5a0,0,0,0,1,0,0V543.6a7,7,0,0,1-7,7h0a14.36,14.36,0,0,1-14.36-14.36V472.69A0,0,0,0,1,866.18,472.69Z"/><polygon class="cls-11" points="887.5 493.16 866.18 496.08 866.18 481.58 887.5 481.58 887.5 493.16"/><path class="cls-12" d="M978.19,410.92v95.25a5.47,5.47,0,0,1-6.9,5.26l-8-2.21L862.53,481.58c0,4.8-4.25,8.72-9.49,8.72H837c-5.23,0-9.49-3.92-9.49-8.72V475c-5.47-2.13-9.35-7.09-9.35-12.9v-7a14,14,0,0,1,9.35-12.87v-6.65c0-4.8,4.26-8.69,9.49-8.69H853c5.24,0,9.49,3.89,9.49,8.69L963.25,407.9l8-2.21A5.45,5.45,0,0,1,978.19,410.92Z"/><path class="cls-10" d="M862.53,435.51v46.07c0,4.8-4.25,8.72-9.49,8.72H837c-5.23,0-9.49-3.92-9.49-8.72V435.51c0-4.8,4.26-8.69,9.49-8.69H853C858.28,426.82,862.53,430.71,862.53,435.51Z"/><polygon class="cls-10" points="971.29 405.69 971.29 511.43 963.25 509.22 963.25 407.9 971.29 405.69"/><path class="cls-11" d="M887.5,538.45l-19.31,5.07a16,16,0,0,1-2-7.31l21.32-5.72Z"/><path class="cls-3" d="M714.84,514.78s42.34-10.72,47.59,38.93l21.62,67.17,57.52-91,15.58,13.7-50.26,123a25.21,25.21,0,0,1-21.45,14.77h0a25.18,25.18,0,0,1-23.76-13.29L710.59,572.4S693.36,533.43,714.84,514.78Z"/><polygon class="cls-4" points="784.05 620.88 777.33 634.32 781.75 613.76 784.05 620.88"/><path class="cls-3" d="M841.57,529.91l4.71-9.7,18.62-19a10.37,10.37,0,0,1,7.4-3.11h19.92a2.4,2.4,0,0,1,2.39,2.11l.36,2.83a2.4,2.4,0,0,1-1.75,2.62l-1.5.41,3.14.51a2.69,2.69,0,0,1,2.11,1.75l.57,1.61a2.69,2.69,0,0,1-1.31,3.29L894,514.41l1.27.32a3.8,3.8,0,0,1,2.87,3.36h0a3.81,3.81,0,0,1-2.06,3.73l-3.24,1.65h2a1.74,1.74,0,0,1,1.69,1.32l.49,1.93a1.75,1.75,0,0,1-.87,2l-17,9.14s-18.78,6.6-27.43,6.1l-7.65,3.79Z"/><path class="cls-4" d="M875.79,528.08a.82.82,0,0,1-.68-.66c-1.84-10-6.8-21-6.85-21.14a.82.82,0,0,1,.4-1.07.81.81,0,0,1,1.06.4c0,.11,5.09,11.28,7,21.53a.8.8,0,0,1-.65.93A1,1,0,0,1,875.79,528.08Z"/><path class="cls-4" d="M878.65,506.64a.42.42,0,0,1-.35-.39.41.41,0,0,1,.4-.41l9.25-.15a.4.4,0,0,1,.41.39.42.42,0,0,1-.4.41l-9.25.15Z"/><path class="cls-4" d="M881.32,514.88a.4.4,0,0,1,.06-.79l8.56.18a.4.4,0,0,1,.39.41.39.39,0,0,1-.41.39l-8.55-.18Z"/><path class="cls-4" d="M883.38,524.17a.4.4,0,0,1-.35-.38.39.39,0,0,1,.38-.41l7.24-.34a.4.4,0,0,1,0,.8l-7.24.34Z"/><path class="cls-6" d="M784.05,622.25h-.17a1.38,1.38,0,0,1-1.13-.94l-14.54-45.19a1.36,1.36,0,0,1,2.59-.83l13.65,42.41,42.88-67.82a1.37,1.37,0,0,1,2.31,1.46L785.2,621.61A1.36,1.36,0,0,1,784.05,622.25Z"/><path class="cls-4" d="M722.85,579c19.33,45.23,36.58,84,38.63,88.68l-50.9-95.24s-17.2-38.9,4.2-57.57C714,515.93,703,532.44,722.85,579Z"/><path class="cls-4" d="M809,661.4l-2.13,5.21a25.24,25.24,0,0,1-21.45,14.78c-.52,0-1,.05-1.53.05a25.19,25.19,0,0,1-22.22-13.36s17.53-7.63,26.58-1.63S809,661.4,809,661.4Z"/><path class="cls-13" d="M1009.33,511.48l25,1.36a1.76,1.76,0,0,1,1.44,2.63l-4.35,7.6a1.76,1.76,0,0,0,.66,2.4l14.19,8.11a1.76,1.76,0,0,1-1.08,3.28l-27.26-3.08a1.77,1.77,0,0,1-1.33-2.63l4.81-8.43a1.75,1.75,0,0,0-.81-2.48l-12.06-5.39A1.76,1.76,0,0,1,1009.33,511.48Z"/><path class="cls-13" d="M1002.79,414.67l25-1.35a1.76,1.76,0,0,0,1.44-2.63l-4.35-7.6a1.78,1.78,0,0,1,.66-2.41l14.19-8.11a1.76,1.76,0,0,0-1.07-3.28l-27.27,3.09A1.76,1.76,0,0,0,1010,395l4.82,8.43a1.78,1.78,0,0,1-.81,2.49L1002,411.31A1.76,1.76,0,0,0,1002.79,414.67Z"/><path class="cls-13" d="M1049.61,436.53l14,2.89a1,1,0,0,0,1.17-1.25l-1.29-4.84a1,1,0,0,1,.71-1.23l9-2.43a1,1,0,0,0-.12-2l-15.53-2.26a1,1,0,0,0-1.12,1.26l1.44,5.37a1,1,0,0,1-.81,1.25l-7.46,1.23A1,1,0,0,0,1049.61,436.53Z"/><path class="cls-13" d="M1026.79,485.2l15.65,4.59a1.15,1.15,0,0,0,1.45-1.31l-1-5.62a1.15,1.15,0,0,1,.92-1.33l10.49-1.91a1.15,1.15,0,0,0,0-2.25l-17.44-4a1.15,1.15,0,0,0-1.38,1.33l1.13,6.23a1.16,1.16,0,0,1-1,1.35L1027,483A1.15,1.15,0,0,0,1026.79,485.2Z"/><path class="cls-10" d="M1225.74,337h200.89a7.22,7.22,0,0,1,5.24,2.26l19.37,20.55a7.2,7.2,0,0,0,12.44-4.94V344.19a7.2,7.2,0,0,1,7.2-7.2h18.88a12,12,0,0,0,12-12V192a12,12,0,0,0-12-12h-264a12,12,0,0,0-12,12V325A12,12,0,0,0,1225.74,337Z"/><text class="cls-14" transform="translate(1290.7 292.96)">NO!</text><path class="cls-10" d="M1142.3,337H941.41a7.22,7.22,0,0,0-5.24,2.26L916.8,359.8a7.2,7.2,0,0,1-12.44-4.94V344.19a7.2,7.2,0,0,0-7.2-7.2H878.27a12,12,0,0,1-12-12V192a12,12,0,0,1,12-12h264a12,12,0,0,1,12,12V325A12,12,0,0,1,1142.3,337Z"/><text class="cls-14" transform="translate(921.68 292.96)">YES!</text><polygon class="cls-3" points="1383.23 1372.39 1430.36 1372.39 1432.65 1370.07 1472.15 1330.22 1472.02 1329.02 1469.4 1310.08 1466.97 1305.42 1467.33 1299.09 1468.69 1273.69 1424.48 1278.81 1425.76 1294.27 1427.37 1313.87 1398.74 1351.81 1383.23 1372.39"/><path class="cls-7" d="M1371.51,1374.87a7,7,0,0,0,6.84,5.13h53.24a30.43,30.43,0,0,0,21.78-9.19l18.79-19.31,8.75,28.5H1487v-.09l-2.77-46a26.83,26.83,0,0,0-5.1-14.2,26,26,0,0,0-3.57-4l-6.13-5.62s1.88,13.65-31.05,41.42-39.6.32-39.6.32c-10,3.1-18.78,9.79-25.26,15.87A7,7,0,0,0,1371.51,1374.87Z"/><path class="cls-2" d="M1371.51,1374.87a7,7,0,0,0,6.84,5.13h53.24a30.43,30.43,0,0,0,21.78-9.19l18.79-19.31,8.75,28.5h5.92l.14-.09-2.77-46a26.83,26.83,0,0,0-5.1-14.2c-7.11,21.88-33.14,41.51-46.31,50.3a29,29,0,0,1-16.13,4.88Z"/><path class="cls-4" d="M1424.48,1278.81l2.89,35.06c19.7-.79,31.59-11.29,40-8.45l1.36-31.73Z"/><polygon class="cls-3" points="1535.26 1372.39 1582.39 1372.39 1584.68 1370.07 1624.18 1330.22 1624.05 1329.02 1621.43 1310.08 1619 1305.42 1619.36 1299.09 1620.72 1273.69 1576.51 1278.81 1577.79 1294.27 1579.4 1313.87 1550.77 1351.81 1535.26 1372.39"/><path class="cls-7" d="M1523.54,1374.87a7,7,0,0,0,6.84,5.13h53.24a30.43,30.43,0,0,0,21.78-9.19l18.79-19.31,8.75,28.5H1639v-.09l-2.77-46a26.83,26.83,0,0,0-5.1-14.2,26,26,0,0,0-3.57-4l-6.13-5.62s1.88,13.65-31.06,41.42-39.59.32-39.59.32c-10,3.1-18.78,9.79-25.26,15.87A7,7,0,0,0,1523.54,1374.87Z"/><path class="cls-2" d="M1523.54,1374.87a7,7,0,0,0,6.84,5.13h53.24a30.43,30.43,0,0,0,21.78-9.19l18.79-19.31,8.75,28.5h5.92l.14-.09-2.77-46a26.83,26.83,0,0,0-5.1-14.2c-7.11,21.88-33.14,41.51-46.31,50.3a29,29,0,0,1-16.13,4.88Z"/><path class="cls-4" d="M1576.51,1278.81l2.89,35.06c19.7-.79,31.59-11.29,40-8.45l1.36-31.73Z"/><path class="cls-15" d="M1462.19,748.92l-19.65,43.57A230.09,230.09,0,0,0,1424.42,855l-25,156.8a230.48,230.48,0,0,0-2.09,55.35l19.38,234.53a5.46,5.46,0,0,0,4.7,4.95c7.72,1.07,25.23,2,49-5.77a5.41,5.41,0,0,0,3.69-4.78c1.76-25.56,11.86-180,3-253.49l75.56-168.13L1515.75,751.6Z"/><path class="cls-16" d="M1500.45,856.46l2.92,51.78a220.19,220.19,0,0,1-8.7,74.88l-17.6,59.44,75.56-168.13-13.85-46.14Z"/><path class="cls-17" d="M1445.05,807.88a1.36,1.36,0,0,1-.67-2.55c16.92-9.55,24.92-34.19,25-34.43a1.36,1.36,0,1,1,2.6.82c-.34,1.06-8.4,25.9-26.26,36A1.38,1.38,0,0,1,1445.05,807.88Z"/><path class="cls-15" d="M1602,748.93l13.52,38.54a206.65,206.65,0,0,1,10.63,89.09l-18.89,165.24s11.8,90.49,19.74,254.09a5.54,5.54,0,0,1-3.73,5.48c-14.37,5-31.86,4.25-50.65,1.16a5.43,5.43,0,0,1-4.48-4.61l-37-261.22-30.76-180.24,5.81-108.68Z"/><path class="cls-17" d="M1597.6,816.9a1.41,1.41,0,0,1-.45-.07c-27.86-9.75-28.89-45.14-28.89-45.49a1.35,1.35,0,0,1,1.33-1.39h0a1.36,1.36,0,0,1,1.36,1.33c0,.34,1,33.86,27.07,43a1.36,1.36,0,0,1-.45,2.65Z"/><path class="cls-17" d="M1522.27,985.7a1.37,1.37,0,0,1-1.34-1.13L1499.25,857.5l-13.39-4.3a1.36,1.36,0,0,1-.88-1.72,1.38,1.38,0,0,1,1.72-.88l14.17,4.56a1.39,1.39,0,0,1,.93,1.07l21.82,127.88a1.36,1.36,0,0,1-1.12,1.57Z"/><path class="cls-18" d="M1581.91,428.48s43.23,33.16,32.24,107.89-69,57.63-86.32,49-26.38-70.23,28.8-150.26Z"/><path class="cls-4" d="M1462.25,508.6h0A50.62,50.62,0,0,0,1447,530.08l-33.37,90.43-15.4-93.68-26.77-2.89,2.68,120.11a40.45,40.45,0,0,0,21.78,35h0a40.45,40.45,0,0,0,54.68-17.47l31.6-61.77S1500.06,548.41,1462.25,508.6Z"/><polygon class="cls-19" points="1413.64 620.51 1415.79 635.29 1417.48 610.11 1413.64 620.51"/><path class="cls-19" d="M1476.27,536.52s-20.66,54-22.79,68.25.51,45.8-2.9,56.87l31.63-61.84-.2-35.59Z"/><path class="cls-4" d="M1389.43,503.85,1376,480.49a10.53,10.53,0,0,0-6.07-5.42l-18.57-6.39a5.07,5.07,0,0,0-4.71.75l-8.29,6.29a2.37,2.37,0,0,0,.05,4.07,2.41,2.41,0,0,0,2,.28h0l3.31,3.45-2.27-.2a2.52,2.52,0,0,0-2.52,1.48l-.76,1.7a2.51,2.51,0,0,0,.49,2.78l3.18,3.3-1.39-.47a2.52,2.52,0,0,0-2.92,1l-.47.72a2.53,2.53,0,0,0,.25,3.1l12.92,14s15.82,12.52,24.27,14.89l6.09,6.16,17.63-5.1Z"/><polygon class="cls-19" points="1340.4 480.07 1351.17 476.15 1360.31 481.04 1349.17 476.88 1340.4 480.07"/><path class="cls-10" d="M1257,401.27h0a15,15,0,0,1,15,15v11a15,15,0,0,1-15,15h0a0,0,0,0,1,0,0V401.27A0,0,0,0,1,1257,401.27Z" transform="translate(2436.83 1056.09) rotate(-170.03)"/><path class="cls-10" d="M1361.93,452.08h0a7.17,7.17,0,0,1,7.17,7.17v73.07a0,0,0,0,1,0,0h-22a0,0,0,0,1,0,0V466.87a14.79,14.79,0,0,1,14.79-14.79Z" transform="translate(2606.46 1219.1) rotate(-169.71)"/><polygon class="cls-11" points="1350.71 471.51 1371.79 478.4 1374.46 463.7 1352.85 459.78 1350.71 471.51"/><path class="cls-12" d="M1273.92,371.46,1256.39,468a5.62,5.62,0,0,0,6,6.6l8.56-.76,107.19-9.48c-.88,4.87,2.7,9.63,8,10.59l16.3,3c5.31,1,10.34-2.23,11.22-7.1l1.22-6.71c5.95-1.15,10.79-5.46,11.85-11.35l1.3-7.13a14.4,14.4,0,0,0-7.11-14.76l1.22-6.74c.89-4.87-2.71-9.6-8-10.57l-16.31-3c-5.3-1-10.33,2.21-11.21,7.07l-97-46.53-7.74-3.71A5.6,5.6,0,0,0,1273.92,371.46Z"/><path class="cls-10" d="M1386.64,417.67l-8.48,46.7c-.88,4.87,2.7,9.63,8,10.59l16.3,3c5.31,1,10.34-2.23,11.22-7.1l8.48-46.69c.89-4.87-2.71-9.6-8-10.57l-16.31-3C1392.55,409.64,1387.52,412.81,1386.64,417.67Z"/><polygon class="cls-10" points="1281.88 367.43 1262.41 474.61 1270.97 473.85 1289.62 371.14 1281.88 367.43"/><path class="cls-4" d="M1377,491.65a8.48,8.48,0,0,0-4.77-4.11l-9-3.1-3.89-1.34a3.26,3.26,0,0,0-4.33,3.17h0a3.25,3.25,0,0,0,1.5,2.67l7.27,4.68,5.35,2.54s-5.12,10.83,2.61,17.45l11.48-10Z"/><path class="cls-19" d="M1368.73,510.33a.4.4,0,0,1-.29-.22c-2.88-5.69-.53-12.14.15-13.75l-5-2.38-7.32-4.7a3.67,3.67,0,0,1,3.19-6.56l12.89,4.43a8.89,8.89,0,0,1,5,4.31.41.41,0,0,1-.17.55.4.4,0,0,1-.55-.17,8,8,0,0,0-4.54-3.92l-12.9-4.44a2.86,2.86,0,0,0-2.48,5.12l7.27,4.67,5.3,2.52a.42.42,0,0,1,.2.55c0,.07-3.4,7.34-.32,13.41a.4.4,0,0,1-.18.54A.35.35,0,0,1,1368.73,510.33Z"/><polygon class="cls-4" points="1352.03 478.66 1349.17 476.88 1342.14 500.54 1345.31 503.09 1346.55 503.37 1348.55 502.21 1349.01 500.65 1347.34 496.6 1352.14 498.21 1353.83 497.65 1355.6 495.49 1355.58 493.54 1349.55 486.09 1357.83 489.31 1359.91 489.05 1361.46 487.73 1361.64 485.78 1359.87 483.81 1352.03 478.66"/><path class="cls-19" d="M1346,503.66a2.88,2.88,0,0,1-1.2-.54l-7.68-5.88a.4.4,0,1,1,.49-.64l7.69,5.87a2.08,2.08,0,0,0,2.62-.06l.1-.08a2.11,2.11,0,0,0,.5-2.61l-1.75-3.21a.41.41,0,0,1,.06-.47.4.4,0,0,1,.45-.1l4.26,1.67a2.1,2.1,0,0,0,2.37-.59l1-1.12a2.1,2.1,0,0,0,0-2.71l-5.84-7a.42.42,0,0,1,0-.49.4.4,0,0,1,.47-.16l9,3.12a2.1,2.1,0,0,0,1.89-3.71l-8.64-6a.4.4,0,0,1-.1-.57.41.41,0,0,1,.56-.1l8.64,6a2.91,2.91,0,0,1-2.61,5.14l-7.64-2.64,4.89,5.86a2.88,2.88,0,0,1,0,3.75l-1,1.13a2.93,2.93,0,0,1-3.28.82L1348,497.1l1.21,2.23a2.91,2.91,0,0,1-.69,3.62l-.1.09A2.92,2.92,0,0,1,1346,503.66Z"/><path class="cls-20" d="M1482.21,599.79l-2.58,5v12.33a16,16,0,0,0-4.05-4.41,6.69,6.69,0,0,0-3.84-1.35c-4.53,0-5-3.9-6.6-9.69s-9.21-7.05-14.55-5.61-12-1-15-7.89c-1.33-3.11-7.21-2.46-10.21-1.91a.72.72,0,0,1-.71-1.12l4.23-6.12,18.09-49c.42-1.17.9-2.31,1.44-3.45a46.93,46.93,0,0,1,5.52-9.3,49.54,49.54,0,0,1,8.28-8.73C1500.06,548.4,1482.21,599.79,1482.21,599.79Z"/><g class="cls-21"><path class="cls-9" d="M1455.3,521a5.76,5.76,0,0,1-5.76,5.76,4.42,4.42,0,0,1-1.08-.12,46.93,46.93,0,0,1,5.52-9.3A5.81,5.81,0,0,1,1455.3,521Z"/><path class="cls-9" d="M1449.54,537.81a5.77,5.77,0,1,0,5.77,5.77A5.76,5.76,0,0,0,1449.54,537.81Z"/><path class="cls-9" d="M1449.54,560.42a5.77,5.77,0,1,0,5.77,5.76A5.76,5.76,0,0,0,1449.54,560.42Z"/><path class="cls-9" d="M1449.54,583a5.76,5.76,0,1,0,5.77,5.76A5.76,5.76,0,0,0,1449.54,583Z"/></g><path class="cls-20" d="M1595.4,715.74l6.63,33.18c-2.16.66-4.29,1.29-6.45,1.86s-4.26,1.14-6.39,1.62c-48.57,11.49-95.19,4-115.86-.66-3.63-.81-6.48-1.56-8.37-2h0c-1.8-.48-2.73-.78-2.73-.78l2.94-44.07.42-6.63v0l1-14.4.66-9.6L1468,662l.66-10-1-.6c-5.1-3.36-10-8.58-14.4-14.22-.63-.75-1.23-1.53-1.8-2.31a43.06,43.06,0,0,1-4-6.51,43.74,43.74,0,0,1-4-12.54c-.12-.66-.21-1.35-.27-2-.15-1.35-.21-2.73-.24-4.08v0c0-1,0-2,.06-3a42.46,42.46,0,0,1,2.67-12.84,39.12,39.12,0,0,1,2.61-5.85l2.46-4.5,16.32-30-.57-5.34-.9-8.25-3.36-31.29a292.64,292.64,0,0,1,32.61-12c.54-.18,1.05-.33,1.59-.48,2.58-.75,5.13-1.47,7.65-2.1h0a227.48,227.48,0,0,1,62.25-7.8c27.3.51,43,6.45,43,6.45l4.41,74.58Z"/><path class="cls-22" d="M1486.81,654.55a1.35,1.35,0,0,1-.87-.31,1.37,1.37,0,0,1-.19-1.92c.86-1,21.45-24.94,76.88-5.84a1.36,1.36,0,1,1-.89,2.57c-53.66-18.48-73.69,4.77-73.88,5A1.38,1.38,0,0,1,1486.81,654.55Z"/><g class="cls-21"><path class="cls-9" d="M1506.09,498.36a5.76,5.76,0,0,1-11.52,0,4.83,4.83,0,0,1,.3-1.74c.54-.18,1.05-.33,1.59-.48,2.58-.75,5.13-1.47,7.65-2.1,0,0,0,0,0,0A5.74,5.74,0,0,1,1506.09,498.36Z"/><path class="cls-9" d="M1530.63,492.6a5.77,5.77,0,1,0,5.77,5.76A5.76,5.76,0,0,0,1530.63,492.6Z"/><path class="cls-9" d="M1560.94,492.6a5.77,5.77,0,1,0,5.76,5.76A5.76,5.76,0,0,0,1560.94,492.6Z"/><path class="cls-9" d="M1591.24,492.6a5.77,5.77,0,1,0,5.76,5.76A5.76,5.76,0,0,0,1591.24,492.6Z"/><path class="cls-9" d="M1470,515.21a5.76,5.76,0,1,0,5.76,5.76A5.77,5.77,0,0,0,1470,515.21Z"/><path class="cls-9" d="M1500.33,515.21a5.76,5.76,0,1,0,5.76,5.76A5.76,5.76,0,0,0,1500.33,515.21Z"/><path class="cls-9" d="M1530.63,515.21a5.76,5.76,0,1,0,5.77,5.76A5.76,5.76,0,0,0,1530.63,515.21Z"/><path class="cls-9" d="M1560.94,515.21a5.76,5.76,0,1,0,5.76,5.76A5.76,5.76,0,0,0,1560.94,515.21Z"/><path class="cls-9" d="M1591.24,515.21A5.76,5.76,0,1,0,1597,521,5.76,5.76,0,0,0,1591.24,515.21Z"/><path class="cls-9" d="M1475.79,543.57a5.76,5.76,0,0,1-5.76,5.76,5.59,5.59,0,0,1-3.51-1.2l-.9-8.25a5.75,5.75,0,0,1,10.17,3.69Z"/><path class="cls-9" d="M1500.33,537.81a5.77,5.77,0,1,0,5.76,5.77A5.76,5.76,0,0,0,1500.33,537.81Z"/><path class="cls-9" d="M1530.63,537.81a5.77,5.77,0,1,0,5.77,5.77A5.76,5.76,0,0,0,1530.63,537.81Z"/><path class="cls-9" d="M1560.94,537.81a5.77,5.77,0,1,0,5.76,5.77A5.77,5.77,0,0,0,1560.94,537.81Z"/><path class="cls-9" d="M1591.24,537.81a5.77,5.77,0,1,0,5.76,5.77A5.76,5.76,0,0,0,1591.24,537.81Z"/><path class="cls-9" d="M1470,560.42a5.77,5.77,0,1,0,5.76,5.76A5.77,5.77,0,0,0,1470,560.42Z"/><path class="cls-9" d="M1500.33,560.42a5.77,5.77,0,1,0,5.76,5.76A5.76,5.76,0,0,0,1500.33,560.42Z"/><path class="cls-9" d="M1530.63,560.42a5.77,5.77,0,1,0,5.77,5.76A5.76,5.76,0,0,0,1530.63,560.42Z"/><path class="cls-9" d="M1560.94,560.42a5.77,5.77,0,1,0,5.76,5.76A5.76,5.76,0,0,0,1560.94,560.42Z"/><path class="cls-9" d="M1591.24,560.42a5.77,5.77,0,1,0,5.76,5.76A5.76,5.76,0,0,0,1591.24,560.42Z"/><path class="cls-9" d="M1470,583a5.76,5.76,0,1,0,5.76,5.76A5.77,5.77,0,0,0,1470,583Z"/><path class="cls-9" d="M1500.33,583a5.76,5.76,0,1,0,5.76,5.76A5.76,5.76,0,0,0,1500.33,583Z"/><path class="cls-9" d="M1530.63,583a5.76,5.76,0,1,0,5.77,5.76A5.76,5.76,0,0,0,1530.63,583Z"/><path class="cls-9" d="M1560.94,583a5.76,5.76,0,1,0,5.76,5.76A5.76,5.76,0,0,0,1560.94,583Z"/><path class="cls-9" d="M1591.24,583a5.76,5.76,0,1,0,5.76,5.76A5.76,5.76,0,0,0,1591.24,583Z"/><path class="cls-9" d="M1470,605.63a5.77,5.77,0,1,0,5.76,5.77A5.77,5.77,0,0,0,1470,605.63Z"/><path class="cls-9" d="M1500.33,605.63a5.77,5.77,0,1,0,5.76,5.77A5.76,5.76,0,0,0,1500.33,605.63Z"/><path class="cls-9" d="M1530.63,605.63a5.77,5.77,0,1,0,5.77,5.77A5.76,5.76,0,0,0,1530.63,605.63Z"/><path class="cls-9" d="M1560.94,605.63a5.77,5.77,0,1,0,5.76,5.77A5.77,5.77,0,0,0,1560.94,605.63Z"/><path class="cls-9" d="M1591.24,605.63a5.77,5.77,0,1,0,5.76,5.77A5.76,5.76,0,0,0,1591.24,605.63Z"/><path class="cls-9" d="M1470,628.24a5.77,5.77,0,1,0,5.76,5.76A5.77,5.77,0,0,0,1470,628.24Z"/><path class="cls-9" d="M1454.22,588.78a5.76,5.76,0,0,1-5.76,5.76,6.16,6.16,0,0,1-2.76-.69,39.12,39.12,0,0,1,2.61-5.85l2.46-4.5A5.75,5.75,0,0,1,1454.22,588.78Z"/><path class="cls-9" d="M1448.46,605.63a5.77,5.77,0,1,0,5.76,5.77A5.76,5.76,0,0,0,1448.46,605.63Z"/><path class="cls-9" d="M1454.22,634a5.88,5.88,0,0,1-.93,3.15c-.63-.75-1.23-1.53-1.8-2.31a43.06,43.06,0,0,1-4-6.51,5,5,0,0,1,1-.09A5.76,5.76,0,0,1,1454.22,634Z"/><path class="cls-9" d="M1500.33,628.24a5.77,5.77,0,1,0,5.76,5.76A5.76,5.76,0,0,0,1500.33,628.24Z"/><path class="cls-9" d="M1530.63,628.24a5.77,5.77,0,1,0,5.77,5.76A5.76,5.76,0,0,0,1530.63,628.24Z"/><path class="cls-9" d="M1560.94,628.24a5.77,5.77,0,1,0,5.76,5.76A5.76,5.76,0,0,0,1560.94,628.24Z"/><path class="cls-9" d="M1591.24,628.24A5.77,5.77,0,1,0,1597,634,5.76,5.76,0,0,0,1591.24,628.24Z"/><path class="cls-9" d="M1475.79,656.61a5.76,5.76,0,0,1-5.76,5.76,5.15,5.15,0,0,1-2-.39l.66-10-1-.6a5.56,5.56,0,0,1,2.34-.51A5.76,5.76,0,0,1,1475.79,656.61Z"/><path class="cls-9" d="M1500.33,650.85a5.76,5.76,0,1,0,5.76,5.76A5.76,5.76,0,0,0,1500.33,650.85Z"/><path class="cls-9" d="M1530.63,650.85a5.76,5.76,0,1,0,5.77,5.76A5.76,5.76,0,0,0,1530.63,650.85Z"/><path class="cls-9" d="M1560.94,650.85a5.76,5.76,0,1,0,5.76,5.76A5.76,5.76,0,0,0,1560.94,650.85Z"/><path class="cls-9" d="M1591.24,650.85a5.76,5.76,0,1,0,5.76,5.76A5.76,5.76,0,0,0,1591.24,650.85Z"/><path class="cls-9" d="M1475.79,679.23A5.76,5.76,0,0,1,1470,685a5.59,5.59,0,0,1-3.51-1.2l.66-9.6a5.77,5.77,0,0,1,8.61,5Z"/><path class="cls-9" d="M1500.33,673.45a5.77,5.77,0,1,0,5.76,5.77A5.76,5.76,0,0,0,1500.33,673.45Z"/><path class="cls-9" d="M1530.63,673.45a5.77,5.77,0,1,0,5.77,5.77A5.76,5.76,0,0,0,1530.63,673.45Z"/><path class="cls-9" d="M1560.94,673.45a5.77,5.77,0,1,0,5.76,5.77A5.77,5.77,0,0,0,1560.94,673.45Z"/><path class="cls-9" d="M1591.24,673.45a5.77,5.77,0,1,0,5.76,5.77A5.76,5.76,0,0,0,1591.24,673.45Z"/><path class="cls-9" d="M1465.56,698.22v0a5.76,5.76,0,1,1,4.47,9.39,5.68,5.68,0,0,1-4.89-2.73Z"/><path class="cls-9" d="M1500.33,696.06a5.77,5.77,0,1,0,5.76,5.76A5.76,5.76,0,0,0,1500.33,696.06Z"/><path class="cls-9" d="M1530.63,696.06a5.77,5.77,0,1,0,5.77,5.76A5.76,5.76,0,0,0,1530.63,696.06Z"/><path class="cls-9" d="M1560.94,696.06a5.77,5.77,0,1,0,5.76,5.76A5.76,5.76,0,0,0,1560.94,696.06Z"/><path class="cls-9" d="M1591.24,696.06a5.77,5.77,0,1,0,5.76,5.76A5.76,5.76,0,0,0,1591.24,696.06Z"/><path class="cls-9" d="M1470,718.67a5.76,5.76,0,1,0,5.76,5.76A5.77,5.77,0,0,0,1470,718.67Z"/><path class="cls-9" d="M1500.33,718.67a5.76,5.76,0,1,0,5.76,5.76A5.76,5.76,0,0,0,1500.33,718.67Z"/><path class="cls-9" d="M1530.63,718.67a5.76,5.76,0,1,0,5.77,5.76A5.76,5.76,0,0,0,1530.63,718.67Z"/><path class="cls-9" d="M1560.94,718.67a5.76,5.76,0,1,0,5.76,5.76A5.76,5.76,0,0,0,1560.94,718.67Z"/><path class="cls-9" d="M1591.24,718.67a5.76,5.76,0,1,0,5.76,5.76A5.76,5.76,0,0,0,1591.24,718.67Z"/><path class="cls-9" d="M1475.79,747a5.68,5.68,0,0,1-2.46,4.71c-3.63-.81-6.48-1.56-8.37-2h0a5.76,5.76,0,1,1,10.86-2.67Z"/><path class="cls-9" d="M1500.33,741.27a5.77,5.77,0,1,0,5.76,5.77A5.76,5.76,0,0,0,1500.33,741.27Z"/><path class="cls-9" d="M1530.63,741.27a5.77,5.77,0,1,0,5.77,5.77A5.76,5.76,0,0,0,1530.63,741.27Z"/><path class="cls-9" d="M1560.94,741.27a5.77,5.77,0,1,0,5.76,5.77A5.77,5.77,0,0,0,1560.94,741.27Z"/><path class="cls-9" d="M1597,747a5.59,5.59,0,0,1-1.41,3.75q-3.19.9-6.39,1.62A5.75,5.75,0,1,1,1597,747Z"/></g><path class="cls-9" d="M1559.4,523.68a11.26,11.26,0,0,1-16.65,2.58l-13-10.68-11.4-2-5.67,6.87a9.26,9.26,0,0,1-16.17-3.87,46.86,46.86,0,0,1-.09-20.46c27.75-8.13,51.48-10.26,69.93-9.9C1574.19,496.62,1566.21,513.06,1559.4,523.68Z"/><path class="cls-23" d="M1592.51,582.59s3.47,37.86-19.17,47a8.58,8.58,0,0,0-2.9,13.92c12.62,13.08,28,36.67,25,72.22l15.27-122.9Z"/><path class="cls-22" d="M1467.51,670.63h-.09a1.36,1.36,0,0,1-1.27-1.45l1.09-16.43c-7.17-4.24-16.44-16.56-16.85-17.1-17.19-22.32-3.42-48-3.28-48.31l18.79-34.51a1.36,1.36,0,1,1,2.39,1.3l-18.79,34.52c-.13.24-13,24.45,3.07,45.35.11.15,10,13.31,16.72,16.76a1.36,1.36,0,0,1,.73,1.3l-1.15,17.3A1.36,1.36,0,0,1,1467.51,670.63Z"/><path class="cls-18" d="M1535.23,344.7s-56.5,5.65-56.55,38.8,27.9,42.14,27.9,42.14l51.49,39s33.86-17.32,32.25-61.1S1566.59,345.85,1535.23,344.7Z"/><path class="cls-4" d="M1557,449.81l3.36,45.57h0c-6.54,24.36-34.72,24-34.72,24-22.48-2.11-19.55-26-19.55-26l2.11-28.39Z"/><polygon class="cls-19" points="1536.23 479.87 1506.06 493.36 1508.17 464.98 1536.23 479.87"/><path class="cls-4" d="M1487.54,380.07s-2,36.69.55,67a37.79,37.79,0,0,0,17.15,28.61,36.56,36.56,0,0,0,31.14,4.2c8.91-2.86,17.42-8.15,23.24-17.51a46.46,46.46,0,0,0,5.3-12s11.8,3.12,14.72-15.81-13.74-17.55-17.09-12.92l-1.7,7.75-4.22,5.63a1.85,1.85,0,0,1-3.32-1.23l1.83-29.18a31.55,31.55,0,0,1-15.91,0c-7.77-2.1-13.56-12.83-14.38-14,.08.52-8.06,4.58-18.07,4.61C1496.93,395.34,1487.54,380.07,1487.54,380.07Z"/><path class="cls-19" d="M1520.93,446.31a1.17,1.17,0,0,0,.41-2.28L1510.8,441l3.6-23.74a1.17,1.17,0,0,0-1-1.33,1.19,1.19,0,0,0-1.33,1l-3.76,24.74a1.18,1.18,0,0,0,.83,1.3l11.52,3.36Z"/><rect class="cls-2" x="1527.16" y="419.11" width="5.29" height="8.05" rx="2.65" transform="translate(3024.15 958.16) rotate(-175.76)"/><rect class="cls-2" x="1497.15" y="418.6" width="5.29" height="8.05" rx="2.65" transform="translate(2964.26 954.93) rotate(-175.76)"/><path class="cls-2" d="M1521.45,416.87a1.14,1.14,0,0,0,.64-.37c7.72-8.75,17.05-5.37,17.45-5.22a1.17,1.17,0,0,0,1.5-.68,1.16,1.16,0,0,0-.67-1.5,18.75,18.75,0,0,0-20,5.86,1.17,1.17,0,0,0,.11,1.64A1.13,1.13,0,0,0,1521.45,416.87Z"/><path class="cls-2" d="M1488.94,411.65a1.05,1.05,0,0,0,.74,0c11-4,17.54,3.45,17.81,3.77a1.17,1.17,0,0,0,1.78-1.51,18.74,18.74,0,0,0-20.39-4.44,1.16,1.16,0,0,0,.06,2.2Z"/><path class="cls-9" d="M1521.22,451.68a3.66,3.66,0,0,0-2,5.92,11.16,11.16,0,0,0,19-4.48,3.69,3.69,0,0,0-4.44-4.55Z"/><path class="cls-19" d="M1563.76,440.61h0a1.07,1.07,0,0,0,1.09-.89c.15-.92.88-3.72,2.25-4.51a1.62,1.62,0,0,1,1.53,0,1.07,1.07,0,1,0,.76-2,3.83,3.83,0,0,0-3.36.19,4.84,4.84,0,0,0-1.19,1c.24-2.8,1-5.62,2.84-6.06,3.89-.93,5.7,3.37,5.78,3.55a1.07,1.07,0,0,0,1.4.57,1.06,1.06,0,0,0,.57-1.39c-.89-2.14-3.75-5.88-8.25-4.81-5.55,1.32-4.58,12.19-4.45,13.43A1.07,1.07,0,0,0,1563.76,440.61Z"/><path class="cls-4" d="M1609.43,492.69h0a26.32,26.32,0,0,1,12.51,13l40.58,91.73,31.27-113.85,23.26,4.31-15.32,134.54a37.36,37.36,0,0,1-19.79,27.23h0a37.36,37.36,0,0,1-46.9-10.72l-42.53-56.34S1580.87,530.89,1609.43,492.69Z"/><path class="cls-19" d="M1590.24,552.93l42.46,82.9-40.19-53.24S1589.68,561.9,1590.24,552.93Z"/><polygon class="cls-19" points="1662.52 597.42 1656.9 608.47 1658.01 587.24 1662.52 597.42"/><path class="cls-4" d="M1693.79,483.57l22.79,5.94,1.44-5.08,2.44-2.22a17.27,17.27,0,0,0,5-8.06l7.17-25.36a10.4,10.4,0,0,0,.35-4,10.63,10.63,0,0,0-5.9-8.48c-2.39-1.17-5.33-2.49-8.82-3.83l-.88-.34c-3.09-1.16-6.58-2.34-10.48-3.46h-.1l-.11,0h0l-.2-.06h0l-.61-21.39a2.41,2.41,0,0,0-.8-1.85,2.5,2.5,0,0,0-1.06-.55,2.4,2.4,0,0,0-2.92,2.12Z"/><path class="cls-19" d="M1707.14,481a1.08,1.08,0,0,0,.19-.35c3.32-12.13,16.9-21.7,17-21.8a.86.86,0,1,0-1-1.41c-.58.4-14.23,10-17.72,22.75a.85.85,0,0,0,.6,1.06A.89.89,0,0,0,1707.14,481Z"/><path class="cls-19" d="M1727.84,455.2a2.74,2.74,0,0,0,.43-.62l5.09-9.57a.43.43,0,1,0-.76-.4l-5.09,9.57a2.29,2.29,0,0,1-4.28-1.41l1.87-12.49a.45.45,0,0,0-.3-.48.44.44,0,0,0-.52.23l-5.52,11.52a2.51,2.51,0,0,1-.41.61,2.59,2.59,0,0,1-4.51-2l1.35-13.21a.43.43,0,0,0-.33-.47.44.44,0,0,0-.5.28L1709.41,451a2.43,2.43,0,0,1-4.72-1l2.19-21.35a.44.44,0,0,0-.39-.47.43.43,0,0,0-.47.39l-2.19,21.34a3.3,3.3,0,0,0,6.39,1.42l3.74-10.74-1,9.53a3.46,3.46,0,0,0,6,2.66,2.92,2.92,0,0,0,.55-.83l4.28-8.92-1.44,9.65a3.15,3.15,0,0,0,5.46,2.56Z"/><line class="cls-3" x1="1706.46" y1="428.57" x2="1706.45" y2="428.57"/><path class="cls-4" d="M1687.91,462.87a12.42,12.42,0,0,1-.65-7.93l.75-3a12.43,12.43,0,0,1,4.22-6.64l5.44-4.4,8.75.05a2.91,2.91,0,0,1,2.15,4.85l-1.71,1.9-10.2,4.34,8.2,10.64a9.06,9.06,0,0,1-6.14,14.54l-4.4.5Z"/><path class="cls-19" d="M1706.81,470.71a.69.69,0,0,0,.1-.19,9.44,9.44,0,0,0-1.7-8.07l-7.87-10.2,9.69-4.12a.33.33,0,0,0,.15-.11l1.71-1.9a3.34,3.34,0,0,0-2.46-5.57.43.43,0,1,0,0,.86,2.48,2.48,0,0,1,1.83,4.13l-1.65,1.83-10.11,4.3a.43.43,0,0,0-.25.29.42.42,0,0,0,.08.37l8.2,10.65a8.55,8.55,0,0,1,1.55,7.33.44.44,0,0,0,.31.53A.46.46,0,0,0,1706.81,470.71Z"/><path class="cls-20" d="M1659.72,573.9a13.81,13.81,0,0,1-4.65,6.69c-2.22,1.71-5.43,2.82-9.9,2-11.55-2.1-11.7,10.77-11.7,10.77s-.18,8.22-9.18,5.7-8.34,6.57-8.34,6.57-.36,3.27-2.64,4.5c-1.5.81-3.81.75-7.35-1.68L1604,597.87l0,0-7.26-9.63-3.63-4.8-.6-.81a102.38,102.38,0,0,1-1.59-10.65c-.33-3.24-.6-7.11-.72-11.43-.09-3.48,0-7.26.21-11.25.18-3.63.57-7.47,1.14-11.4A118.52,118.52,0,0,1,1593.9,526c.66-2.52,1.38-5.07,2.25-7.62,0,0,0,0,0,0a91.05,91.05,0,0,1,13.29-25.65,25.22,25.22,0,0,1,6.27,4.35,24.85,24.85,0,0,1,5.46,7.08,15.13,15.13,0,0,1,.78,1.56l25.17,57,2.67,6,0,0,4.71,2.49Z"/><g class="cls-21"><path class="cls-9" d="M1621.17,504.12a5.77,5.77,0,0,1-5.61-5.76,6.36,6.36,0,0,1,.15-1.32A24.85,24.85,0,0,1,1621.17,504.12Z"/><path class="cls-9" d="M1596.81,521a5.74,5.74,0,0,1-2.91,5c.66-2.52,1.38-5.07,2.25-7.62A5.2,5.2,0,0,1,1596.81,521Z"/><path class="cls-9" d="M1621.34,515.21a5.76,5.76,0,1,0,5.76,5.76A5.76,5.76,0,0,0,1621.34,515.21Z"/><path class="cls-9" d="M1596.81,543.57a5.77,5.77,0,0,1-5.79,5.76,1.94,1.94,0,0,1-.6-.06c.18-3.63.57-7.47,1.14-11.4A5.7,5.7,0,0,1,1596.81,543.57Z"/><path class="cls-9" d="M1621.34,537.81a5.77,5.77,0,1,0,5.76,5.77A5.77,5.77,0,0,0,1621.34,537.81Z"/><path class="cls-9" d="M1596.81,566.19A5.77,5.77,0,0,1,1591,572h-.09c-.33-3.24-.6-7.11-.72-11.43a3.72,3.72,0,0,1,.81-.09A5.77,5.77,0,0,1,1596.81,566.19Z"/><path class="cls-9" d="M1621.34,560.42a5.77,5.77,0,1,0,5.76,5.76A5.76,5.76,0,0,0,1621.34,560.42Z"/><path class="cls-9" d="M1654.53,571.17a5.52,5.52,0,0,1-2.88.78,5.76,5.76,0,0,1-5.76-5.76,5.7,5.7,0,0,1,1.23-3.54l2.67,6,0,0Z"/><path class="cls-9" d="M1596.75,588.21l-3.63-4.8A5.67,5.67,0,0,1,1596.75,588.21Z"/><path class="cls-9" d="M1621.34,583a5.76,5.76,0,1,0,5.76,5.76A5.76,5.76,0,0,0,1621.34,583Z"/></g><path class="cls-13" d="M1230.32,464.27l-24.83,3.08a1.76,1.76,0,0,0-1.24,2.73l4.86,7.28a1.76,1.76,0,0,1-.49,2.44l-13.6,9.07a1.76,1.76,0,0,0,1.3,3.2l27-5a1.76,1.76,0,0,0,1.14-2.71l-5.38-8.08a1.75,1.75,0,0,1,.63-2.53l11.66-6.21A1.76,1.76,0,0,0,1230.32,464.27Z"/><path class="cls-13" d="M1245.85,372.78l-25,.37a1.76,1.76,0,0,1-1.61-2.53l3.81-7.88a1.76,1.76,0,0,0-.82-2.35l-14.71-7.11a1.76,1.76,0,0,1,.84-3.35l27.41,1.2a1.76,1.76,0,0,1,1.51,2.53l-4.22,8.74a1.76,1.76,0,0,0,1,2.42l12.4,4.54A1.76,1.76,0,0,1,1245.85,372.78Z"/><path class="cls-13" d="M1215.48,400.11,1201.69,404a1,1,0,0,1-1.26-1.17l1-4.91a1,1,0,0,0-.79-1.18l-9.18-1.8a1,1,0,0,1,0-2l15.34-3.33a1,1,0,0,1,1.21,1.18l-1.07,5.45a1,1,0,0,0,.9,1.2l7.52.71A1,1,0,0,1,1215.48,400.11Z"/><path class="cls-13" d="M1239.38,443.73l-15.3,5.66a1.15,1.15,0,0,1-1.54-1.21l.64-5.67a1.15,1.15,0,0,0-1-1.27l-10.59-1.18a1.15,1.15,0,0,1-.21-2.24l17.12-5.21a1.14,1.14,0,0,1,1.47,1.23l-.7,6.29a1.15,1.15,0,0,0,1.13,1.27l8.62.11A1.15,1.15,0,0,1,1239.38,443.73Z"/><path class="cls-12" d="M689.87,225.24a52.63,52.63,0,0,1-13.19,67.81c-.65.52-1.32,1-2,1.5q-1.95,1.38-4.08,2.61a53.32,53.32,0,0,1-8.52,4c-.79.28-1.59.55-2.39.8a52.66,52.66,0,1,1,30.19-76.68Z"/><path class="cls-9" d="M663.19,240.8c-1.89-3.12-6-4.88-8.88-3.77a7.89,7.89,0,0,0-4.47,5.29c-.68,2.22-1.14,6.44,1.65,12.44-3.34,2.31-7.21,4.78-11.07,6.95l-1.37.77c-6.12-8.74-8.09-9.23-9-9.46-3.07-.77-5.83.69-7.37,3.91-1.85,3.85-1.68,9.61,1.53,12,2.34,1.79,7.91-.08,14.07-3.24,2.46,3.63,5.57,8.54,9.49,15.16,4.87,8.24,9.42,16.46,11.91,21,.8-.25,1.6-.52,2.39-.8-2.44-4.5-7.13-13-12.17-21.49-3.84-6.5-6.93-11.39-9.42-15.08A142.75,142.75,0,0,0,652.61,257c.61,1.09,1.32,2.22,2.15,3.41,6.24,8.93,15.78,26.44,19.91,34.18.69-.49,1.36-1,2-1.5-4.24-7.93-13.66-25.2-19.89-34.11a38.06,38.06,0,0,1-2.13-3.42c2.6-1.86,4.69-3.48,5.92-4.54C665.76,246.49,664.13,242.37,663.19,240.8ZM625.71,267c-1.93-1.47-2.31-5.83-.79-9a5,5,0,0,1,1.92-2.28,3.36,3.36,0,0,1,2.61-.3c.73.18,2.66,1.5,7.39,8.21C629.59,267.33,626.44,267.55,625.71,267ZM659,249.1c-1.32,1.15-3.19,2.6-5.39,4.19-1.71-3.87-2.2-7.44-1.35-10.25a5.82,5.82,0,0,1,2.48-3.45,3.54,3.54,0,0,1,.52-.25c1.54-.6,4.49.49,5.85,2.74S661.64,246.78,659,249.1Z"/><path class="cls-24" d="M681.27,320h11.85a0,0,0,0,1,0,0v5.92a5.92,5.92,0,0,1-5.92,5.92h0a5.92,5.92,0,0,1-5.92-5.92V320a0,0,0,0,1,0,0Z" transform="translate(-70.89 387.19) rotate(-29.99)"/><path class="cls-10" d="M689.05,279.27l11.83,20.48A17.71,17.71,0,0,1,694.4,324l-12.51,7.21a17.7,17.7,0,0,1-19.32-1,17.92,17.92,0,0,1-3-2.82,17.05,17.05,0,0,1-1.84-2.62L645.87,304.2A141,141,0,0,0,689.05,279.27Z"/><polygon class="cls-24" points="691.27 283.11 693.29 286.61 651.97 314.76 649.95 311.26 691.27 283.11"/><polygon class="cls-24" points="695.95 291.21 697.97 294.71 656.65 322.87 654.63 319.37 695.95 291.21"/><path class="cls-24" d="M700.63,299.31l.25.44a17.64,17.64,0,0,1,1.47,3.27l-39.78,27.1a17.92,17.92,0,0,1-3-2.82Z"/><rect class="cls-12" x="606.92" y="186.33" width="3.44" height="16.59" rx="1.72" transform="translate(-15.78 330.34) rotate(-29.99)"/><rect class="cls-12" x="696.53" y="210.33" width="3.44" height="16.6" rx="1.72" transform="translate(538.4 -495.37) rotate(59.99)"/><rect class="cls-12" x="582.91" y="275.92" width="3.44" height="16.6" rx="1.72" transform="translate(538.4 -364.19) rotate(60)"/><rect class="cls-12" x="656.7" y="179.78" width="3.44" height="16.59" rx="1.72" transform="translate(71.09 -163.97) rotate(15)"/><rect class="cls-12" x="622.74" y="306.48" width="3.44" height="16.59" rx="1.72" transform="translate(102.72 -150.87) rotate(15)"/><rect class="cls-12" x="703.09" y="260.1" width="3.44" height="16.6" rx="1.72" transform="translate(1146.51 -342.9) rotate(105)"/><rect class="cls-12" x="576.35" y="226.15" width="3.44" height="16.6" rx="1.72" transform="translate(954.18 -263.23) rotate(105)"/><path class="cls-12" d="M1650.13,225.24a52.63,52.63,0,0,0,13.19,67.81c.65.52,1.32,1,2,1.5q2,1.38,4.08,2.61a53.32,53.32,0,0,0,8.52,4c.79.28,1.59.55,2.39.8a52.66,52.66,0,1,0-30.19-76.68Z"/><path class="cls-9" d="M1679.42,251c1.23,1.06,3.32,2.68,5.92,4.54a38.06,38.06,0,0,1-2.13,3.42c-6.23,8.91-15.65,26.18-19.89,34.11.65.52,1.32,1,2,1.5,4.13-7.74,13.67-25.25,19.91-34.18.83-1.19,1.54-2.32,2.15-3.41a142.75,142.75,0,0,0,12.13,7.59c-2.49,3.69-5.58,8.58-9.42,15.08-5,8.51-9.73,17-12.17,21.49.79.28,1.59.55,2.39.8,2.49-4.57,7-12.79,11.91-21,3.92-6.62,7-11.53,9.49-15.16,6.16,3.16,11.73,5,14.07,3.24,3.21-2.43,3.38-8.19,1.53-12-1.54-3.22-4.3-4.68-7.37-3.91-.91.23-2.88.72-9,9.46l-1.37-.77c-3.86-2.17-7.73-4.64-11.07-6.95,2.79-6,2.33-10.22,1.65-12.44a7.89,7.89,0,0,0-4.47-5.29c-2.85-1.11-7,.65-8.88,3.77C1675.87,242.37,1674.24,246.49,1679.42,251Zm23.74,12.66c4.73-6.71,6.66-8,7.39-8.21a3.36,3.36,0,0,1,2.61.3,5,5,0,0,1,1.92,2.28c1.52,3.16,1.14,7.52-.79,9C1713.56,267.55,1710.41,267.33,1703.16,263.64Zm-24.22-21.56c1.36-2.25,4.31-3.34,5.85-2.74a3.54,3.54,0,0,1,.52.25,5.82,5.82,0,0,1,2.48,3.45c.85,2.81.36,6.38-1.35,10.25-2.2-1.59-4.07-3-5.39-4.19C1678.36,246.78,1677.61,244.28,1678.94,242.08Z"/><path class="cls-24" d="M1652.81,320h0a5.92,5.92,0,0,1,5.92,5.92v5.92a0,0,0,0,1,0,0h-11.85a0,0,0,0,1,0,0V325.9A5.92,5.92,0,0,1,1652.81,320Z" transform="translate(2921.34 1434.42) rotate(-150.01)"/><path class="cls-10" d="M1651,279.27l-11.83,20.48a17.71,17.71,0,0,0,6.48,24.2l12.51,7.21a17.7,17.7,0,0,0,19.32-1,17.92,17.92,0,0,0,3-2.82,17.05,17.05,0,0,0,1.84-2.62l11.83-20.48A141,141,0,0,1,1651,279.27Z"/><polygon class="cls-24" points="1648.73 283.11 1646.71 286.61 1688.03 314.76 1690.05 311.26 1648.73 283.11"/><polygon class="cls-24" points="1644.05 291.21 1642.03 294.71 1683.35 322.87 1685.37 319.37 1644.05 291.21"/><path class="cls-24" d="M1639.37,299.31l-.25.44a17.64,17.64,0,0,0-1.47,3.27l39.78,27.1a17.92,17.92,0,0,0,3-2.82Z"/><rect class="cls-12" x="1729.64" y="186.33" width="3.44" height="16.59" rx="1.72" transform="translate(3133.55 1228.73) rotate(-150.01)"/><rect class="cls-12" x="1640.03" y="210.33" width="3.44" height="16.6" rx="1.72" transform="translate(2652.09 -1093.75) rotate(120.01)"/><rect class="cls-12" x="1753.65" y="275.92" width="3.44" height="16.6" rx="1.72" transform="translate(2879.32 -1093.77) rotate(120)"/><rect class="cls-12" x="1679.86" y="179.78" width="3.44" height="16.59" rx="1.72" transform="translate(3354.55 -65.4) rotate(165)"/><rect class="cls-12" x="1713.82" y="306.48" width="3.44" height="16.59" rx="1.72" transform="translate(3454.1 174.91) rotate(165)"/><rect class="cls-12" x="1633.47" y="260.1" width="3.44" height="16.6" rx="1.72" transform="translate(1471.14 -1380.53) rotate(75)"/><rect class="cls-12" x="1760.2" y="226.15" width="3.44" height="16.6" rx="1.72" transform="translate(1532.27 -1528.11) rotate(75)"/></g></g></svg>